<svg xmlns="http://www.w3.org/2000/svg" viewBox="0 0 781.9 452.64"><defs><style>.cls-1{fill:#f7f2f2;}</style></defs><g id="Layer_2" data-name="Layer 2"><g id="Layer_1-2" data-name="Layer 1"><path class="cls-1" d="M553.23,411.83c21.19,0,33.84-12.33,33.84-36.69v-5.69h50v6.64c0,48.4-31,76.54-83.51,76.54"/><path class="cls-1" d="M5.06,319.62a50,50,0,0,1,50,50v5.54c0,27.66,15.22,36,42.94,36,27.49.08,139.88.29,139.88.29V195.16h50V452.63H88.55c-52.5,0-83.49-28.15-83.49-76.54V319.62Z"/><path class="cls-1" d="M683.24,282.78c-62.85,0-96.67,33.09-96.79,92.36v.32c.21,49.61,56,77.18,106,77.18,56.6,0,89.49-31.31,89.49-83.19C781.9,314.73,745.23,282.78,683.24,282.78ZM683.53,414c-17.06,0-35.79-4.2-55.9-21.08L637,375.14c0-31.3,17.41-49.33,47.46-49.33,28.78,0,45.87,16.44,45.87,44.58C730.37,398.24,713.28,414,683.53,414Z"/><path class="cls-1" d="M139.54,346.57c-2.19,1.79-5.22,2.67-9.09,2.67a31.59,31.59,0,0,1-13.15-2.75L113.48,365q8.11,3.06,19.57,3.06,15.75,0,24.92-7.56t9.17-20.57a24.53,24.53,0,0,0-6-16.75A29,29,0,0,0,149,315l18.09-10h0V287.15L120.82,312.7v17.89a30.18,30.18,0,0,1,9-1.37q6.27,0,9.63,2.52a8.7,8.7,0,0,1,3.36,7.41A9,9,0,0,1,139.54,346.57Z"/><path class="cls-1" d="M332.13,78.76h7.8a41.54,41.54,0,0,1,41.54,41.54V248.93h-7.8a41.54,41.54,0,0,1-41.54-41.55Z"/><path class="cls-1" d="M781.9,248.91H742a41.57,41.57,0,0,1-32.35-15.47l-41.31-51.27-23.72,23.42v43.32h-7.78a41.54,41.54,0,0,1-41.55-41.54v-11.8l49.33-48.48,60.09-56.94a41.55,41.55,0,0,1,28.57-11.39h42.3l-70.87,72.11Z"/><path class="cls-1" d="M206.22,76.23c-25.62,0-48.71,10.43-62.31,27.83-13.6-17.4-36.69-27.83-62.31-27.83C41.12,76.23,0,99.63,0,151.51v55.87a41.54,41.54,0,0,0,41.54,41.55h7.8V159.1c0-27.52,12.34-40.17,32.26-40.17,22.14,0,37.64,14.23,37.64,44.6v43.85a41.54,41.54,0,0,0,41.54,41.55h7.8v-85.4c0-30.37,15.5-44.6,37.64-44.6,19.93,0,32.26,12.65,32.26,40.17v48.28A41.55,41.55,0,0,0,280,248.93h7.8V151.51C287.83,99.63,246.71,76.23,206.22,76.23Z"/><path class="cls-1" d="M493.77,113.56A101.46,101.46,0,0,1,583,166.62l31.36-30.17A150.59,150.59,0,0,0,493.77,76.22c-49.68,0-78.76,22.77-78.76,55,0,68,102.79,39.55,102.79,67.36,0,9.5-8.55,15.51-31.33,15.51a120.17,120.17,0,0,1-33.14-4.95A33.26,33.26,0,0,0,413.71,227l-2.83,6.09c15.83,10.43,44.93,18.35,73.71,18.35,50.92,0,80.35-22.48,80.35-54.11,0-67-102.83-38.89-102.83-68C462.11,120.51,471.61,113.56,493.77,113.56Z"/><path class="cls-1" d="M261.69,452.63H553.54c52.51,0,83.51-28.15,83.51-76.54v-6.64h-50v5.69c0,24.36-12.65,36.69-33.84,36.69H262"/><path class="cls-1" d="M503.25,312.09h50a0,0,0,0,1,0,0v118a0,0,0,0,1,0,0H506.39a3.14,3.14,0,0,1-3.14-3.14V312.09A0,0,0,0,1,503.25,312.09Z" transform="translate(1056.48 742.17) rotate(-180)"/><path class="cls-1" d="M417.69,312.09h50a0,0,0,0,1,0,0v118a0,0,0,0,1,0,0H420.83a3.14,3.14,0,0,1-3.14-3.14V312.09A0,0,0,0,1,417.69,312.09Z" transform="translate(885.35 742.17) rotate(180)"/><path class="cls-1" d="M332.13,312.09h50a0,0,0,0,1,0,0v118a0,0,0,0,1,0,0H335.26a3.14,3.14,0,0,1-3.14-3.14V312.09A0,0,0,0,1,332.13,312.09Z" transform="translate(714.23 742.17) rotate(180)"/><path class="cls-1" d="M326.12,27.52C326.12,12,338.45,0,356.8,0s30.68,11.39,30.68,26.57C387.48,43,375.14,55,356.8,55S326.12,43,326.12,27.52Z"/></g></g></svg>